<svg id="Layer_1" data-name="Layer 1" xmlns="http://www.w3.org/2000/svg" viewBox="0 0 643.9 92.4"><defs><style>.cls-1{fill:#009}</style></defs><path class="cls-1" d="M39.7 44.3c0-5.1-4.7-12.4-13.7-12.4-8.2 0-13.7 7-13.7 14.2 0 8.6 5.9 14.7 16.1 14.7h19.3a25.552 25.552 0 01-21.6 11.7 26.2 26.2 0 1126.2-26.2 27.598 27.598 0 01-1.3 8.2H21.9v-2.9l10.3-.3c5.2-.2 7.5-2.9 7.5-7"/><path class="cls-1" d="M74 36.4l10-14.7h13.7L80.8 45.4l18.3 25.5H84.5L73.6 55l-11 15.9H48.8l18-24.9-17.5-24.3h14.6L74 36.4zM127.4 61.8c7.4 0 13.9-6.5 13.9-15.5s-6.5-15.5-13.9-15.5c-7.3 0-13.9 6.5-13.9 15.5s6.6 15.5 13.9 15.5m-13.1-30.4c3.6-7.6 10.1-11 16.6-11 11.9 0 22.7 10.1 22.7 26s-10.8 26-22.7 26c-6.6 0-13-3.4-16.6-11-.2-.4-.5-.3-.5.1v29.8h-12.7V21.7h12.7v9.5c-.1.5.2.6.5.2M197.3 44.3c0-5.1-4.7-12.4-13.7-12.4-8.2 0-13.7 7-13.7 14.2 0 8.6 5.9 14.7 16.1 14.7h19.3a25.552 25.552 0 01-21.6 11.7 26.2 26.2 0 1126.2-26.2 27.598 27.598 0 01-1.3 8.2h-29.1v-2.9l10.3-.3c5.2-.2 7.5-2.9 7.5-7M240.2 30.8c-7.4 0-13.9 6.5-13.9 15.5s6.5 15.5 13.9 15.5c7.3 0 13.9-6.5 13.9-15.5s-6.6-15.5-13.9-15.5m13.1 30.4c-3.6 7.6-10.1 11-16.6 11-11.9 0-22.7-10.1-22.7-26s10.8-26 22.7-26c6.6 0 13 3.4 16.6 11 .2.4.5.3.5-.1V.4h12.7v70.4h-12.7v-9.4c.1-.5-.2-.6-.5-.2M288.4 70.9h-12.7V21.7h12.7zM274.6 7.4a7.4 7.4 0 1114.8 0 7.4 7.4 0 11-14.8 0M320.9 30.8c-7.4 0-13.9 6.5-13.9 15.5s6.5 15.5 13.9 15.5c7.3 0 13.9-6.5 13.9-15.5s-6.6-15.5-13.9-15.5m13.2 30.4c-3.6 7.6-10.1 11-16.6 11-11.9 0-22.7-10.1-22.7-26s10.8-26 22.7-26c6.6 0 13 3.4 16.6 11 .2.4.5.3.5-.1v-9.5h12.7v49.2h-12.7v-9.4c0-.5-.3-.6-.5-.2M397.1 30.8c-7.3 0-13.7 6.4-13.7 15.3s6.4 15.3 13.7 15.3c7.2 0 13.7-6.4 13.7-15.3s-6.5-15.3-13.7-15.3m13.4 30.1c0-.4-.3-.5-.5-.1-3.6 7.6-10 11-16.4 11-11.8 0-22.5-10-22.5-25.7s10.7-25.7 22.5-25.7c6.5 0 12.8 3.4 16.4 11 .2.4.5.3.5-.1v-9.5h12.7v46.3c0 13.7-9.4 24.3-25.7 24.3a33.216 33.216 0 01-22.9-8.6l7.6-8.3c5.1 4 9.1 6.1 15 6.1 9.3 0 13.2-6.6 13.2-14.7v-6zM445.1 21.7v10.7c0 .2.2.3.3 0 1.7-8.8 5.5-12.1 12.1-12.1h1.2v13.3H453c-5.2 0-7.8 4-7.8 9.7v27.4h-12.7v-49zM485.6 31.7c-7.6 0-13.9 6.4-13.9 14.6 0 8.3 6.3 14.6 13.9 14.6s13.9-6.4 13.9-14.6c-.1-8.3-6.3-14.6-13.9-14.6m.1-11.6a26.2 26.2 0 11-26.3 26.2 26.27 26.27 0 0126.3-26.2M538.1 72.5c-12.4 0-20.3-7.5-20.3-18.5V21.7h12.7V53c0 4.9 3.2 8.1 7.9 8.1a7.547 7.547 0 007.6-7.9V21.7h12.8v32.2c0 11.1-8.6 18.6-20.7 18.6M593.9 61.8c7.4 0 13.9-6.5 13.9-15.5s-6.5-15.5-13.9-15.5c-7.3 0-13.9 6.5-13.9 15.5s6.6 15.5 13.9 15.5m-13.1-30.4c3.6-7.6 10.1-11 16.6-11 11.9 0 22.7 10.1 22.7 26s-10.8 26-22.7 26c-6.6 0-13-3.4-16.6-11-.2-.4-.5-.3-.5.1v29.8h-12.7V21.7h12.7v9.5c0 .5.3.6.5.2M628.5 21.9v1.2h2.2v6.2h1.4v-6.2h2.2v-1.2zm13.5 0l-2 5.2-2-5.2h-2.1v7.4h1.3v-5.8l2.2 5.8h1l2.2-5.8v5.8h1.3v-7.4z"/></svg>